# xmcd
#
# Track frame offsets:
#	182
#	19892
#	35202
#	52690
#	68892
#	85315
#	98767
#	115102
#	131422
#	149485
#	168737
#	184685
#	201472
#	219265
#
# Disc length: 3051 seconds
#
# Revision: 1
# Processed by: cddbd v1.4PL0 Copyright (c) Steve Scherf et al.
# Submitted via: audiograbber 1.81.03
#
DISCID=cb0be90e
DTITLE=Yves Roche - Tahiti Cool, Vol. 4
DYEAR=1991
DGENRE=Native Songs
TTITLE0=Haere mai na
TTITLE1=Amadeus hula
TTITLE2=Bain de soleil
TTITLE3=Maimiti
TTITLE4=Manu oo
TTITLE5=Kamakea
TTITLE6=Les "Tabou" bout à bout
TTITLE7=Maeva
TTITLE8=Revelove
TTITLE9=If you ask me to
TTITLE10=Viens mon baby
TTITLE11=Vaea
TTITLE12=Let love reign
TTITLE13=Bringue au lafayette
EXTD=
EXTT0=
EXTT1=
EXTT2=
EXTT3=
EXTT4=
EXTT5=
EXTT6=
EXTT7=
EXTT8=
EXTT9=
EXTT10=
EXTT11=
EXTT12=
EXTT13=
PLAYORDER=
